<svg width="37" height="36" viewBox="0 0 37 36" fill="none" xmlns="http://www.w3.org/2000/svg">
<path fill-rule="evenodd" clip-rule="evenodd" d="M37.0005 16.1199L35.641 17.718C33.7592 11.4568 29.2656 7.55132 22.1846 4.61097C28.7779 3.59741 35.897 8.98345 37.0005 16.1199Z" fill="#15FF00"/>
<path fill-rule="evenodd" clip-rule="evenodd" d="M18.7144 35.457L17.1992 34.0076C24.0969 32.6689 28.2307 27.0891 30.8217 19.9562C32.534 27.0061 26.2901 35.1319 18.7144 35.457Z" fill="#2B4EA1"/>
<path fill-rule="evenodd" clip-rule="evenodd" d="M0 19.624L1.68811 17.6038C3.14791 24.0518 7.73831 28.1925 14.8159 31.1329C8.22261 32.143 1.1035 26.757 0 19.624Z" fill="#FFCA05"/>
<path fill-rule="evenodd" clip-rule="evenodd" d="M16.8776 0L18.8771 1.87836C12.0347 3.96774 7.68298 8.79684 5.09201 15.9298C3.37968 8.87986 9.30189 0.325168 16.8776 0Z" fill="#EC1C24"/>
<path d="M17.8387 9.724H11.0137V16.5629H17.8387V9.724Z" fill="#2B4EA1"/>
<path d="M17.8387 18.2855H11.0137V25.1244H17.8387V18.2855Z" fill="#15FF00"/>
<path d="M25.9198 9.724H19.0947V16.5629H25.9198V9.724Z" fill="#FFCA05"/>
<path d="M25.9198 18.2855H19.0947V25.1244H25.9198V18.2855Z" fill="#EC1C24"/>
</svg>
